<svg width="36" height="42" viewBox="0 0 36 42" fill="none" xmlns="http://www.w3.org/2000/svg">
<path d="M34.4062 8.90625C34.8438 9.34375 35.2188 9.9375 35.5312 10.6875C35.8438 11.4375 36 12.125 36 12.75V39.75C36 40.375 35.7812 40.9062 35.3438 41.3438C34.9062 41.7812 34.375 42 33.75 42H2.25C1.625 42 1.09375 41.7812 0.65625 41.3438C0.21875 40.9062 0 40.375 0 39.75V2.25C0 1.625 0.21875 1.09375 0.65625 0.65625C1.09375 0.21875 1.625 0 2.25 0H23.25C23.875 0 24.5625 0.15625 25.3125 0.46875C26.0625 0.78125 26.6562 1.15625 27.0938 1.59375L34.4062 8.90625ZM24 3.1875V12H32.8125C32.6562 11.5469 32.4844 11.2266 32.2969 11.0391L24.9609 3.70312C24.7734 3.51562 24.4531 3.34375 24 3.1875ZM33 39V15H23.25C22.625 15 22.0938 14.7812 21.6562 14.3438C21.2188 13.9062 21 13.375 21 12.75V3H3V39H33ZM9 18.75C9 18.5312 9.07031 18.3516 9.21094 18.2109C9.35156 18.0703 9.53125 18 9.75 18H26.25C26.4688 18 26.6484 18.0703 26.7891 18.2109C26.9297 18.3516 27 18.5312 27 18.75V20.25C27 20.4688 26.9297 20.6484 26.7891 20.7891C26.6484 20.9297 26.4688 21 26.25 21H9.75C9.53125 21 9.35156 20.9297 9.21094 20.7891C9.07031 20.6484 9 20.4688 9 20.25V18.75ZM26.25 24C26.4688 24 26.6484 24.0703 26.7891 24.2109C26.9297 24.3516 27 24.5312 27 24.75V26.25C27 26.4688 26.9297 26.6484 26.7891 26.7891C26.6484 26.9297 26.4688 27 26.25 27H9.75C9.53125 27 9.35156 26.9297 9.21094 26.7891C9.07031 26.6484 9 26.4688 9 26.25V24.75C9 24.5312 9.07031 24.3516 9.21094 24.2109C9.35156 24.0703 9.53125 24 9.75 24H26.25ZM26.25 30C26.4688 30 26.6484 30.0703 26.7891 30.2109C26.9297 30.3516 27 30.5312 27 30.75V32.25C27 32.4688 26.9297 32.6484 26.7891 32.7891C26.6484 32.9297 26.4688 33 26.25 33H9.75C9.53125 33 9.35156 32.9297 9.21094 32.7891C9.07031 32.6484 9 32.4688 9 32.25V30.75C9 30.5312 9.07031 30.3516 9.21094 30.2109C9.35156 30.0703 9.53125 30 9.75 30H26.25Z" fill="#484848"/>
</svg>
