<svg width="115" height="24" viewBox="0 0 115 24" fill="none" xmlns="http://www.w3.org/2000/svg">
<path d="M9.4 22H3.6C3.26863 22 3 21.7314 3 21.4V17.6C3 17.2686 3.26863 17 3.6 17H9.4C9.73137 17 10 17.2686 10 17.6V21.4C10 21.7314 9.73137 22 9.4 22Z" stroke="black" stroke-width="1.5"/>
<path d="M14.9 7H9.1C8.76863 7 8.5 6.73137 8.5 6.4V2.6C8.5 2.26863 8.76863 2 9.1 2H14.9C15.2314 2 15.5 2.26863 15.5 2.6V6.4C15.5 6.73137 15.2314 7 14.9 7Z" stroke="black" stroke-width="1.5"/>
<path d="M20.4 22H14.6C14.2686 22 14 21.7314 14 21.4V17.6C14 17.2686 14.2686 17 14.6 17H20.4C20.7314 17 21 17.2686 21 17.6V21.4C21 21.7314 20.7314 22 20.4 22Z" stroke="black" stroke-width="1.5"/>
<path d="M6.5 17V13.5C6.5 12.3954 7.39543 11.5 8.5 11.5H15.5C16.6046 11.5 17.5 12.3954 17.5 13.5V17" stroke="black" stroke-width="1.5"/>
<path d="M12 11.5V7" stroke="black" stroke-width="1.5"/>
<path d="M37.3906 15.7031L40.2129 5.78125H41.5801L40.7891 9.63867L37.752 20H36.3945L37.3906 15.7031ZM34.4707 5.78125L36.7168 15.5078L37.3906 20H36.043L32.5957 5.78125H34.4707ZM45.2324 15.498L47.4297 5.78125H49.3145L45.877 20H44.5293L45.2324 15.498ZM41.7852 5.78125L44.5293 15.7031L45.5254 20H44.168L41.2383 9.63867L40.4375 5.78125H41.7852ZM55.2031 20.1953C54.4674 20.1953 53.8001 20.0716 53.2012 19.8242C52.6087 19.5703 52.0977 19.2155 51.668 18.7598C51.2448 18.304 50.9193 17.7637 50.6914 17.1387C50.4635 16.5137 50.3496 15.8301 50.3496 15.0879V14.6777C50.3496 13.8184 50.4766 13.0534 50.7305 12.3828C50.9844 11.7057 51.3294 11.1328 51.7656 10.6641C52.2018 10.1953 52.6966 9.84049 53.25 9.59961C53.8034 9.35872 54.3763 9.23828 54.9688 9.23828C55.724 9.23828 56.375 9.36849 56.9219 9.62891C57.4753 9.88932 57.9277 10.2539 58.2793 10.7227C58.6309 11.1849 58.8913 11.7318 59.0605 12.3633C59.2298 12.9883 59.3145 13.6719 59.3145 14.4141V15.2246H51.4238V13.75H57.5078V13.6133C57.4818 13.1445 57.3841 12.6888 57.2148 12.2461C57.0521 11.8034 56.7917 11.4388 56.4336 11.1523C56.0755 10.8659 55.5872 10.7227 54.9688 10.7227C54.5586 10.7227 54.181 10.8105 53.8359 10.9863C53.4909 11.1556 53.1947 11.4095 52.9473 11.748C52.6999 12.0866 52.5078 12.5 52.3711 12.9883C52.2344 13.4766 52.166 14.0397 52.166 14.6777V15.0879C52.166 15.5892 52.2344 16.0612 52.3711 16.5039C52.5143 16.9401 52.7194 17.3242 52.9863 17.6562C53.2598 17.9883 53.5885 18.2487 53.9727 18.4375C54.3633 18.6263 54.806 18.7207 55.3008 18.7207C55.9388 18.7207 56.4792 18.5905 56.9219 18.3301C57.3646 18.0697 57.752 17.7214 58.084 17.2852L59.1777 18.1543C58.9499 18.4993 58.6602 18.8281 58.3086 19.1406C57.957 19.4531 57.5241 19.707 57.0098 19.9023C56.502 20.0977 55.8997 20.1953 55.2031 20.1953ZM61.4141 5H63.2305V17.9492L63.0742 20H61.4141V5ZM70.3691 14.6289V14.834C70.3691 15.6022 70.278 16.3151 70.0957 16.9727C69.9134 17.6237 69.6465 18.1901 69.2949 18.6719C68.9434 19.1536 68.5137 19.528 68.0059 19.7949C67.498 20.0618 66.9154 20.1953 66.2578 20.1953C65.5872 20.1953 64.998 20.0814 64.4902 19.8535C63.9889 19.6191 63.5658 19.2839 63.2207 18.8477C62.8757 18.4115 62.599 17.8841 62.3906 17.2656C62.1888 16.6471 62.0488 15.9505 61.9707 15.1758V14.2773C62.0488 13.4961 62.1888 12.7962 62.3906 12.1777C62.599 11.5592 62.8757 11.0319 63.2207 10.5957C63.5658 10.153 63.9889 9.81771 64.4902 9.58984C64.9915 9.35547 65.5742 9.23828 66.2383 9.23828C66.9023 9.23828 67.4915 9.36849 68.0059 9.62891C68.5202 9.88281 68.9499 10.2474 69.2949 10.7227C69.6465 11.1979 69.9134 11.7676 70.0957 12.4316C70.278 13.0892 70.3691 13.8216 70.3691 14.6289ZM68.5527 14.834V14.6289C68.5527 14.1016 68.5039 13.6068 68.4062 13.1445C68.3086 12.6758 68.1523 12.2656 67.9375 11.9141C67.7227 11.556 67.4395 11.276 67.0879 11.0742C66.7363 10.8659 66.3034 10.7617 65.7891 10.7617C65.3333 10.7617 64.9362 10.8398 64.5977 10.9961C64.2656 11.1523 63.9824 11.3639 63.748 11.6309C63.5137 11.8913 63.3216 12.1908 63.1719 12.5293C63.0286 12.8613 62.9212 13.2064 62.8496 13.5645V15.918C62.9538 16.3737 63.123 16.8132 63.3574 17.2363C63.5983 17.653 63.9173 17.9948 64.3145 18.2617C64.7181 18.5286 65.2161 18.6621 65.8086 18.6621C66.2969 18.6621 66.7135 18.5645 67.0586 18.3691C67.4102 18.1673 67.6934 17.8906 67.9082 17.5391C68.1296 17.1875 68.2923 16.7806 68.3965 16.3184C68.5007 15.8561 68.5527 15.3613 68.5527 14.834ZM76.668 15.7031L79.4902 5.78125H80.8574L80.0664 9.63867L77.0293 20H75.6719L76.668 15.7031ZM73.748 5.78125L75.9941 15.5078L76.668 20H75.3203L71.873 5.78125H73.748ZM84.5098 15.498L86.707 5.78125H88.5918L85.1543 20H83.8066L84.5098 15.498ZM81.0625 5.78125L83.8066 15.7031L84.8027 20H83.4453L80.5156 9.63867L79.7148 5.78125H81.0625ZM92.3711 9.43359V20H90.5547V9.43359H92.3711ZM90.418 6.63086C90.418 6.33789 90.5059 6.09049 90.6816 5.88867C90.8639 5.68685 91.1309 5.58594 91.4824 5.58594C91.8275 5.58594 92.0911 5.68685 92.2734 5.88867C92.4622 6.09049 92.5566 6.33789 92.5566 6.63086C92.5566 6.91081 92.4622 7.15169 92.2734 7.35352C92.0911 7.54883 91.8275 7.64648 91.4824 7.64648C91.1309 7.64648 90.8639 7.54883 90.6816 7.35352C90.5059 7.15169 90.418 6.91081 90.418 6.63086ZM101.424 17.1973C101.424 16.9368 101.365 16.696 101.248 16.4746C101.137 16.2467 100.906 16.0417 100.555 15.8594C100.21 15.6706 99.6888 15.5078 98.9922 15.3711C98.4062 15.2474 97.8757 15.1009 97.4004 14.9316C96.9316 14.7624 96.5312 14.5573 96.1992 14.3164C95.8737 14.0755 95.623 13.7923 95.4473 13.4668C95.2715 13.1413 95.1836 12.7604 95.1836 12.3242C95.1836 11.9076 95.2747 11.5137 95.457 11.1426C95.6458 10.7715 95.9095 10.4427 96.248 10.1562C96.5931 9.86979 97.0065 9.64518 97.4883 9.48242C97.9701 9.31966 98.5072 9.23828 99.0996 9.23828C99.946 9.23828 100.669 9.38802 101.268 9.6875C101.867 9.98698 102.326 10.3874 102.645 10.8887C102.964 11.3835 103.123 11.9336 103.123 12.5391H101.316C101.316 12.2461 101.229 11.9629 101.053 11.6895C100.883 11.4095 100.633 11.1784 100.301 10.9961C99.9753 10.8138 99.5749 10.7227 99.0996 10.7227C98.5983 10.7227 98.1914 10.8008 97.8789 10.957C97.5729 11.1068 97.3483 11.2988 97.2051 11.5332C97.0684 11.7676 97 12.015 97 12.2754C97 12.4707 97.0326 12.6465 97.0977 12.8027C97.1693 12.9525 97.293 13.0924 97.4688 13.2227C97.6445 13.3464 97.8919 13.4635 98.2109 13.5742C98.5299 13.6849 98.9368 13.7956 99.4316 13.9062C100.298 14.1016 101.01 14.3359 101.57 14.6094C102.13 14.8828 102.547 15.2181 102.82 15.6152C103.094 16.0124 103.23 16.4941 103.23 17.0605C103.23 17.5228 103.133 17.946 102.938 18.3301C102.749 18.7142 102.472 19.0462 102.107 19.3262C101.749 19.5996 101.32 19.8145 100.818 19.9707C100.324 20.1204 99.7669 20.1953 99.1484 20.1953C98.2174 20.1953 97.4297 20.0293 96.7852 19.6973C96.1406 19.3652 95.6523 18.9355 95.3203 18.4082C94.9883 17.8809 94.8223 17.3242 94.8223 16.7383H96.6387C96.6647 17.2331 96.8079 17.627 97.0684 17.9199C97.3288 18.2064 97.6478 18.4115 98.0254 18.5352C98.403 18.6523 98.7773 18.7109 99.1484 18.7109C99.6432 18.7109 100.057 18.6458 100.389 18.5156C100.727 18.3854 100.984 18.2064 101.16 17.9785C101.336 17.7507 101.424 17.4902 101.424 17.1973ZM109.988 20.1953C109.253 20.1953 108.585 20.0716 107.986 19.8242C107.394 19.5703 106.883 19.2155 106.453 18.7598C106.03 18.304 105.704 17.7637 105.477 17.1387C105.249 16.5137 105.135 15.8301 105.135 15.0879V14.6777C105.135 13.8184 105.262 13.0534 105.516 12.3828C105.77 11.7057 106.115 11.1328 106.551 10.6641C106.987 10.1953 107.482 9.84049 108.035 9.59961C108.589 9.35872 109.161 9.23828 109.754 9.23828C110.509 9.23828 111.16 9.36849 111.707 9.62891C112.26 9.88932 112.713 10.2539 113.064 10.7227C113.416 11.1849 113.676 11.7318 113.846 12.3633C114.015 12.9883 114.1 13.6719 114.1 14.4141V15.2246H106.209V13.75H112.293V13.6133C112.267 13.1445 112.169 12.6888 112 12.2461C111.837 11.8034 111.577 11.4388 111.219 11.1523C110.861 10.8659 110.372 10.7227 109.754 10.7227C109.344 10.7227 108.966 10.8105 108.621 10.9863C108.276 11.1556 107.98 11.4095 107.732 11.748C107.485 12.0866 107.293 12.5 107.156 12.9883C107.02 13.4766 106.951 14.0397 106.951 14.6777V15.0879C106.951 15.5892 107.02 16.0612 107.156 16.5039C107.299 16.9401 107.505 17.3242 107.771 17.6562C108.045 17.9883 108.374 18.2487 108.758 18.4375C109.148 18.6263 109.591 18.7207 110.086 18.7207C110.724 18.7207 111.264 18.5905 111.707 18.3301C112.15 18.0697 112.537 17.7214 112.869 17.2852L113.963 18.1543C113.735 18.4993 113.445 18.8281 113.094 19.1406C112.742 19.4531 112.309 19.707 111.795 19.9023C111.287 20.0977 110.685 20.1953 109.988 20.1953Z" fill="black"/>
</svg>
