<svg width="36" height="42" viewBox="0 0 36 42" fill="none" xmlns="http://www.w3.org/2000/svg">
<path d="M34.4062 8.90625C34.8438 9.34375 35.2188 9.9375 35.5312 10.6875C35.8438 11.4375 36 12.125 36 12.75V39.75C36 40.375 35.7812 40.9062 35.3438 41.3438C34.9062 41.7812 34.375 42 33.75 42H2.25C1.625 42 1.09375 41.7812 0.65625 41.3438C0.21875 40.9062 0 40.375 0 39.75V2.25C0 1.625 0.21875 1.09375 0.65625 0.65625C1.09375 0.21875 1.625 0 2.25 0H23.25C23.875 0 24.5625 0.15625 25.3125 0.46875C26.0625 0.78125 26.6562 1.15625 27.0938 1.59375L34.4062 8.90625ZM24 3.1875V12H32.8125C32.6562 11.5469 32.4844 11.2266 32.2969 11.0391L24.9609 3.70312C24.7734 3.51562 24.4531 3.34375 24 3.1875ZM33 39V15H23.25C22.625 15 22.0938 14.7812 21.6562 14.3438C21.2188 13.9062 21 13.375 21 12.75V3H3V39H33Z" fill="#484848"/>
</svg>
