<svg width="48" height="48" viewBox="0 0 48 48" fill="none" xmlns="http://www.w3.org/2000/svg">
<path d="M26.256 48H21.72C20.6506 48 19.6251 47.5752 18.8689 46.8191C18.1128 46.0629 17.688 45.0373 17.688 43.968V41.352C17.675 41.1979 17.6185 41.0506 17.525 40.9274C17.4315 40.8042 17.3049 40.71 17.16 40.656C17.0131 40.5619 16.8424 40.5119 16.668 40.5119C16.4936 40.5119 16.3228 40.5619 16.176 40.656L14.4 42.576C14.0275 42.9512 13.5844 43.2489 13.0963 43.4521C12.6082 43.6553 12.0847 43.7599 11.556 43.7599C11.0273 43.7599 10.5038 43.6553 10.0157 43.4521C9.52762 43.2489 9.08454 42.9512 8.712 42.576L5.424 39.36C5.04341 38.9882 4.74114 38.5439 4.53504 38.0534C4.32894 37.5629 4.22318 37.0361 4.224 36.504C4.22554 35.4157 4.65682 34.372 5.424 33.6L7.2 31.824C7.28574 31.6918 7.33137 31.5376 7.33137 31.38C7.33137 31.2224 7.28574 31.0682 7.2 30.936C7.056 30.576 6.816 30.312 6.48 30.312H4.032C2.96045 30.3057 1.93494 29.8755 1.17948 29.1156C0.424013 28.3556 -1.87589e-05 27.3276 6.22427e-10 26.256V21.72C6.22425e-10 20.6506 0.424799 19.6251 1.18095 18.8689C1.93709 18.1128 2.96265 17.688 4.032 17.688H6.648C6.80213 17.675 6.94938 17.6185 7.07261 17.525C7.19584 17.4315 7.28996 17.3049 7.344 17.16C7.43809 17.0131 7.48809 16.8424 7.48809 16.668C7.48809 16.4936 7.43809 16.3228 7.344 16.176L5.424 14.4C5.04884 14.0275 4.7511 13.5844 4.54792 13.0963C4.34474 12.6082 4.24013 12.0847 4.24013 11.556C4.24013 11.0273 4.34474 10.5038 4.54792 10.0157C4.7511 9.52762 5.04884 9.08454 5.424 8.712L8.64 5.424C9.00815 5.04521 9.44837 4.7439 9.93473 4.53782C10.4211 4.33173 10.9438 4.22503 11.472 4.224C12.015 4.22162 12.5531 4.32638 13.0555 4.5323C13.558 4.73822 14.0149 5.04124 14.4 5.424L16.176 7.2C16.3082 7.28574 16.4624 7.33137 16.62 7.33137C16.7776 7.33137 16.9318 7.28574 17.064 7.2C17.424 7.056 17.688 6.816 17.688 6.48V4.032C17.6943 2.96045 18.1245 1.93494 18.8844 1.17948C19.6444 0.424013 20.6724 -1.87589e-05 21.744 6.22427e-10H26.4C27.4694 6.22427e-10 28.4949 0.424799 29.2511 1.18095C30.0072 1.93709 30.432 2.96265 30.432 4.032V6.648C30.445 6.80213 30.5015 6.94938 30.595 7.07261C30.6885 7.19584 30.8151 7.28996 30.96 7.344C31.1068 7.43809 31.2776 7.48809 31.452 7.48809C31.6264 7.48809 31.7971 7.43809 31.944 7.344L33.6 5.424C33.9725 5.04884 34.4156 4.7511 34.9037 4.54792C35.3918 4.34474 35.9153 4.24013 36.444 4.24013C36.9727 4.24013 37.4962 4.34474 37.9843 4.54792C38.4724 4.7511 38.9155 5.04884 39.288 5.424L42.576 8.64C42.9555 9.01262 43.2571 9.45704 43.4631 9.94738C43.6691 10.4377 43.7755 10.9641 43.776 11.496C43.7876 12.0367 43.6869 12.5739 43.4804 13.0738C43.2738 13.5736 42.9659 14.0252 42.576 14.4L40.8 16.176C40.7143 16.3082 40.6686 16.4624 40.6686 16.62C40.6686 16.7776 40.7143 16.9318 40.8 17.064C40.944 17.424 41.184 17.688 41.52 17.688H44.136C45.1781 17.7374 46.1611 18.1864 46.8807 18.9418C47.6003 19.6971 48.0012 20.7007 48 21.744V26.4C48 27.4694 47.5752 28.4949 46.8191 29.2511C46.0629 30.0072 45.0373 30.432 43.968 30.432H41.352C41.1979 30.445 41.0506 30.5015 40.9274 30.595C40.8042 30.6885 40.71 30.8151 40.656 30.96C40.5703 31.0922 40.5246 31.2464 40.5246 31.404C40.5246 31.5616 40.5703 31.7158 40.656 31.848L42.504 33.696C42.8792 34.0685 43.1769 34.5116 43.3801 34.9997C43.5833 35.4878 43.6879 36.0113 43.6879 36.54C43.6879 37.0687 43.5833 37.5922 43.3801 38.0803C43.1769 38.5684 42.8792 39.0115 42.504 39.384L39.36 42.576C38.9918 42.9548 38.5516 43.2561 38.0653 43.4622C37.5789 43.6683 37.0562 43.775 36.528 43.776C35.4563 43.7619 34.4321 43.3316 33.672 42.576L31.824 40.8C31.6918 40.7143 31.5376 40.6686 31.38 40.6686C31.2224 40.6686 31.0682 40.7143 30.936 40.8C30.576 40.944 30.312 41.184 30.312 41.52V44.136C30.2626 45.1781 29.8136 46.1611 29.0582 46.8807C28.3029 47.6003 27.2993 48.0012 26.256 48ZM22.488 43.2H25.512V41.352C25.5222 40.2452 25.8606 39.1664 26.4844 38.2521C27.1082 37.3378 27.9892 36.6292 29.016 36.216C30.047 35.7653 31.1888 35.632 32.2959 35.8329C33.403 36.0338 34.4251 36.5598 35.232 37.344L36.528 38.64L38.64 36.528L37.344 35.208C36.5648 34.4133 36.0393 33.405 35.8342 32.3111C35.6291 31.2172 35.7536 30.087 36.192 29.064C36.6089 28.0417 37.3192 27.1657 38.2332 26.5464C39.1471 25.9272 40.224 25.5923 41.328 25.584H43.2V22.488H41.352C40.2452 22.4778 39.1664 22.1394 38.2521 21.5156C37.3378 20.8918 36.6292 20.0108 36.216 18.984C35.7653 17.953 35.632 16.8112 35.8329 15.7041C36.0338 14.597 36.5598 13.5749 37.344 12.768L38.64 11.472L36.528 9.36L35.208 10.656C34.4009 11.3932 33.4 11.8844 32.3232 12.0719C31.2463 12.2593 30.1383 12.1352 29.1296 11.7141C28.1209 11.2929 27.2535 10.5924 26.6296 9.69484C26.0057 8.79732 25.6513 7.74021 25.608 6.648V4.8H22.488V6.648C22.4778 7.75475 22.1394 8.83358 21.5156 9.74787C20.8918 10.6622 20.0108 11.3708 18.984 11.784C17.953 12.2347 16.8112 12.368 15.7041 12.1671C14.597 11.9662 13.5749 11.4402 12.768 10.656L11.472 9.36L9.36 11.472L10.656 12.792C11.3932 13.5991 11.8844 14.6 12.0719 15.6768C12.2593 16.7537 12.1352 17.8617 11.7141 18.8704C11.2929 19.8791 10.5924 20.7465 9.69484 21.3704C8.79732 21.9943 7.74021 22.3487 6.648 22.392H4.8V25.416H6.648C7.75475 25.4262 8.83358 25.7646 9.74787 26.3884C10.6622 27.0122 11.3708 27.8932 11.784 28.92C12.2347 29.951 12.368 31.0928 12.1671 32.1999C11.9662 33.3069 11.4402 34.3291 10.656 35.136L9.36 36.432L11.472 38.544L12.792 37.248C13.5991 36.5108 14.6 36.0196 15.6768 35.8321C16.7537 35.6447 17.8617 35.7688 18.8704 36.1899C19.8791 36.6111 20.7465 37.3116 21.3704 38.2092C21.9943 39.1067 22.3487 40.1638 22.392 41.256L22.488 43.2Z" fill="#484848"/>
<path d="M24.0001 32.4C22.3387 32.4 20.7147 31.9073 19.3333 30.9843C17.9519 30.0613 16.8753 28.7494 16.2395 27.2145C15.6037 25.6796 15.4374 23.9907 15.7615 22.3612C16.0856 20.7318 16.8856 19.235 18.0604 18.0603C19.2352 16.8855 20.7319 16.0855 22.3613 15.7614C23.9908 15.4373 25.6797 15.6036 27.2146 16.2394C28.7495 16.8752 30.0614 17.9518 30.9844 19.3332C31.9074 20.7146 32.4001 22.3386 32.4001 24C32.4001 26.2278 31.5151 28.3644 29.9398 29.9397C28.3645 31.515 26.2279 32.4 24.0001 32.4ZM24.0001 20.4C23.2881 20.4 22.5921 20.6111 22.0001 21.0067C21.408 21.4023 20.9466 21.9645 20.6741 22.6223C20.4017 23.2801 20.3304 24.004 20.4693 24.7023C20.6082 25.4006 20.951 26.0421 21.4545 26.5456C21.958 27.049 22.5994 27.3919 23.2978 27.5308C23.9961 27.6697 24.7199 27.5984 25.3778 27.3259C26.0356 27.0535 26.5978 26.592 26.9934 26C27.389 25.408 27.6001 24.712 27.6001 24C27.6001 23.0452 27.2208 22.1295 26.5457 21.4544C25.8706 20.7793 24.9549 20.4 24.0001 20.4Z" fill="#484848"/>
</svg>
